<svg xmlns="http://www.w3.org/2000/svg" xmlns:xlink="http://www.w3.org/1999/xlink" width="500" zoomAndPan="magnify" viewBox="0 0 375 374.999991" height="500" preserveAspectRatio="xMidYMid meet" version="1.0"><defs><g/><clipPath id="d7c142ed15"><path d="M 52.550781 135.304688 L 109.671875 135.304688 L 109.671875 161.847656 L 52.550781 161.847656 Z M 52.550781 135.304688 " clip-rule="nonzero"/></clipPath><clipPath id="a1dd67beff"><path d="M 81.0625 135.304688 L 109.570312 161.847656 L 52.550781 161.847656 Z M 81.0625 135.304688 " clip-rule="nonzero"/></clipPath><clipPath id="9b837e6cbc"><path d="M 52.550781 164.097656 L 64.992188 164.097656 L 64.992188 190.410156 L 52.550781 190.410156 Z M 52.550781 164.097656 " clip-rule="nonzero"/></clipPath></defs><g fill="#eeba2b" fill-opacity="1"><g transform="translate(48.244036, 204.508313)"><g><path d="M 4.25 0 L 4.25 -36.34375 L 16.796875 -36.34375 L 16.796875 -32.515625 L 16.9375 -32.515625 C 20.1875 -35.773438 23.65625 -37.40625 27.34375 -37.40625 C 29.988281 -37.40625 32.46875 -36.859375 34.78125 -35.765625 C 37.09375 -34.679688 38.84375 -33.007812 40.03125 -30.75 C 43.707031 -35.1875 47.71875 -37.40625 52.0625 -37.40625 C 55.9375 -37.40625 59.265625 -36.316406 62.046875 -34.140625 C 64.835938 -31.972656 66.234375 -28.570312 66.234375 -23.9375 L 66.234375 0 L 53.703125 0 L 53.703125 -20.546875 C 53.703125 -22.484375 53.171875 -24.097656 52.109375 -25.390625 C 51.046875 -26.691406 49.453125 -27.34375 47.328125 -27.34375 C 45.484375 -27.34375 44.078125 -26.785156 43.109375 -25.671875 C 42.140625 -24.566406 41.609375 -23.234375 41.515625 -21.671875 L 41.515625 0 L 28.96875 0 L 28.96875 -20.546875 C 28.96875 -22.484375 28.4375 -24.097656 27.375 -25.390625 C 26.3125 -26.691406 24.71875 -27.34375 22.59375 -27.34375 C 20.65625 -27.34375 19.203125 -26.738281 18.234375 -25.53125 C 17.273438 -24.332031 16.796875 -22.90625 16.796875 -21.25 L 16.796875 0 Z M 4.25 0 "/></g></g></g><g clip-path="url(#d7c142ed15)"><g clip-path="url(#a1dd67beff)"><path fill="#eeba2b" d="M 52.550781 135.304688 L 109.570312 135.304688 L 109.570312 161.847656 L 52.550781 161.847656 Z M 52.550781 135.304688 " fill-opacity="1" fill-rule="nonzero"/></g></g><g clip-path="url(#9b837e6cbc)"><path fill="#eeba2b" d="M 52.550781 164.097656 L 64.992188 164.097656 L 64.992188 190.390625 L 52.550781 190.390625 Z M 52.550781 164.097656 " fill-opacity="1" fill-rule="nonzero"/></g><g fill="#eeba2b" fill-opacity="1"><g transform="translate(118.038878, 204.508313)"><g><path d="M 6.71875 -4.5 C 3.320312 -8.207031 1.625 -12.753906 1.625 -18.140625 C 1.625 -23.523438 3.320312 -28.082031 6.71875 -31.8125 C 10.125 -35.539062 14.445312 -37.40625 19.6875 -37.40625 C 24.507812 -37.40625 28.476562 -35.894531 31.59375 -32.875 L 31.59375 -36.34375 L 44.140625 -36.34375 L 44.140625 0 L 31.734375 0 L 31.734375 -4.109375 L 31.59375 -4.109375 C 28.476562 -0.660156 24.507812 1.0625 19.6875 1.0625 C 14.445312 1.0625 10.125 -0.789062 6.71875 -4.5 Z M 17.390625 -24.296875 C 15.765625 -22.691406 14.953125 -20.632812 14.953125 -18.125 C 14.953125 -15.625 15.726562 -13.582031 17.28125 -12 C 18.84375 -10.425781 20.898438 -9.640625 23.453125 -9.640625 C 25.910156 -9.640625 27.925781 -10.441406 29.5 -12.046875 C 31.082031 -13.648438 31.875 -15.679688 31.875 -18.140625 C 31.875 -20.640625 31.054688 -22.691406 29.421875 -24.296875 C 27.796875 -25.898438 25.804688 -26.703125 23.453125 -26.703125 C 21.046875 -26.703125 19.023438 -25.898438 17.390625 -24.296875 Z M 17.390625 -24.296875 "/></g></g></g><g fill="#eeba2b" fill-opacity="1"><g transform="translate(162.175111, 204.508313)"><g><path d="M 20.046875 -37.40625 C 22.128906 -37.40625 24.1875 -37.164062 26.21875 -36.6875 C 28.25 -36.21875 29.757812 -35.75 30.75 -35.28125 L 32.234375 -34.578125 L 28.125 -26.359375 C 25.289062 -27.867188 22.597656 -28.625 20.046875 -28.625 C 18.628906 -28.625 17.625 -28.46875 17.03125 -28.15625 C 16.445312 -27.851562 16.15625 -27.273438 16.15625 -26.421875 C 16.15625 -26.234375 16.175781 -26.046875 16.21875 -25.859375 C 16.269531 -25.671875 16.363281 -25.492188 16.5 -25.328125 C 16.644531 -25.160156 16.773438 -25.015625 16.890625 -24.890625 C 17.015625 -24.773438 17.21875 -24.644531 17.5 -24.5 C 17.78125 -24.363281 18.003906 -24.257812 18.171875 -24.1875 C 18.335938 -24.125 18.609375 -24.019531 18.984375 -23.875 C 19.359375 -23.726562 19.640625 -23.617188 19.828125 -23.546875 C 20.023438 -23.484375 20.347656 -23.378906 20.796875 -23.234375 C 21.242188 -23.097656 21.582031 -23.003906 21.8125 -22.953125 C 23.28125 -22.523438 24.554688 -22.050781 25.640625 -21.53125 C 26.734375 -21.007812 27.878906 -20.300781 29.078125 -19.40625 C 30.285156 -18.507812 31.21875 -17.375 31.875 -16 C 32.539062 -14.632812 32.875 -13.078125 32.875 -11.328125 C 32.875 -3.066406 27.132812 1.0625 15.65625 1.0625 C 13.0625 1.0625 10.59375 0.660156 8.25 -0.140625 C 5.914062 -0.941406 4.226562 -1.742188 3.1875 -2.546875 L 1.625 -3.828125 L 6.734375 -12.390625 C 7.109375 -12.066406 7.601562 -11.679688 8.21875 -11.234375 C 8.832031 -10.785156 9.941406 -10.171875 11.546875 -9.390625 C 13.148438 -8.609375 14.546875 -8.21875 15.734375 -8.21875 C 18.328125 -8.21875 19.625 -9.09375 19.625 -10.84375 C 19.625 -11.644531 19.289062 -12.269531 18.625 -12.71875 C 17.96875 -13.164062 16.847656 -13.671875 15.265625 -14.234375 C 13.679688 -14.804688 12.441406 -15.328125 11.546875 -15.796875 C 9.273438 -16.972656 7.476562 -18.304688 6.15625 -19.796875 C 4.84375 -21.285156 4.1875 -23.257812 4.1875 -25.71875 C 4.1875 -29.394531 5.613281 -32.257812 8.46875 -34.3125 C 11.320312 -36.375 15.179688 -37.40625 20.046875 -37.40625 Z M 20.046875 -37.40625 "/></g></g></g><g fill="#eeba2b" fill-opacity="1"><g transform="translate(192.779884, 204.508313)"><g><path d="M 23.59375 -27.140625 C 21.226562 -27.140625 19.195312 -26.265625 17.5 -24.515625 C 15.800781 -22.765625 14.953125 -20.660156 14.953125 -18.203125 C 14.953125 -15.703125 15.800781 -13.578125 17.5 -11.828125 C 19.195312 -10.078125 21.226562 -9.203125 23.59375 -9.203125 C 24.726562 -9.203125 25.800781 -9.34375 26.8125 -9.625 C 27.832031 -9.914062 28.578125 -10.203125 29.046875 -10.484375 L 29.6875 -10.90625 L 33.9375 -2.203125 C 33.601562 -1.960938 33.140625 -1.664062 32.546875 -1.3125 C 31.960938 -0.957031 30.617188 -0.472656 28.515625 0.140625 C 26.410156 0.753906 24.15625 1.0625 21.75 1.0625 C 16.414062 1.0625 11.726562 -0.8125 7.6875 -4.5625 C 3.644531 -8.320312 1.625 -12.820312 1.625 -18.0625 C 1.625 -23.351562 3.644531 -27.898438 7.6875 -31.703125 C 11.726562 -35.503906 16.414062 -37.40625 21.75 -37.40625 C 24.15625 -37.40625 26.375 -37.117188 28.40625 -36.546875 C 30.4375 -35.984375 31.878906 -35.421875 32.734375 -34.859375 L 33.9375 -34 L 29.6875 -25.4375 C 28.125 -26.570312 26.09375 -27.140625 23.59375 -27.140625 Z M 23.59375 -27.140625 "/></g></g></g><g fill="#eeba2b" fill-opacity="1"><g transform="translate(223.313811, 204.508313)"><g><path d="M 6.71875 -4.5 C 3.320312 -8.207031 1.625 -12.753906 1.625 -18.140625 C 1.625 -23.523438 3.320312 -28.082031 6.71875 -31.8125 C 10.125 -35.539062 14.445312 -37.40625 19.6875 -37.40625 C 24.507812 -37.40625 28.476562 -35.894531 31.59375 -32.875 L 31.59375 -36.34375 L 44.140625 -36.34375 L 44.140625 0 L 31.734375 0 L 31.734375 -4.109375 L 31.59375 -4.109375 C 28.476562 -0.660156 24.507812 1.0625 19.6875 1.0625 C 14.445312 1.0625 10.125 -0.789062 6.71875 -4.5 Z M 17.390625 -24.296875 C 15.765625 -22.691406 14.953125 -20.632812 14.953125 -18.125 C 14.953125 -15.625 15.726562 -13.582031 17.28125 -12 C 18.84375 -10.425781 20.898438 -9.640625 23.453125 -9.640625 C 25.910156 -9.640625 27.925781 -10.441406 29.5 -12.046875 C 31.082031 -13.648438 31.875 -15.679688 31.875 -18.140625 C 31.875 -20.640625 31.054688 -22.691406 29.421875 -24.296875 C 27.796875 -25.898438 25.804688 -26.703125 23.453125 -26.703125 C 21.046875 -26.703125 19.023438 -25.898438 17.390625 -24.296875 Z M 17.390625 -24.296875 "/></g></g></g><g fill="#eeba2b" fill-opacity="1"><g transform="translate(267.450045, 204.508313)"><g><path d="M 4.25 0 L 4.25 -36.34375 L 16.796875 -36.34375 L 16.796875 -32.515625 L 16.9375 -32.515625 C 20.1875 -35.773438 23.65625 -37.40625 27.34375 -37.40625 C 29.132812 -37.40625 30.914062 -37.164062 32.6875 -36.6875 C 34.457031 -36.21875 36.15625 -35.488281 37.78125 -34.5 C 39.414062 -33.507812 40.738281 -32.101562 41.75 -30.28125 C 42.769531 -28.46875 43.28125 -26.351562 43.28125 -23.9375 L 43.28125 0 L 30.75 0 L 30.75 -20.546875 C 30.75 -22.429688 30.144531 -24.082031 28.9375 -25.5 C 27.738281 -26.914062 26.171875 -27.625 24.234375 -27.625 C 22.335938 -27.625 20.625 -26.890625 19.09375 -25.421875 C 17.5625 -23.960938 16.796875 -22.335938 16.796875 -20.546875 L 16.796875 0 Z M 4.25 0 "/></g></g></g><g fill="#eeba2b" fill-opacity="1"><g transform="translate(310.027679, 204.508313)"><g><path d="M 5.453125 -56.59375 C 6.921875 -58.0625 8.671875 -58.796875 10.703125 -58.796875 C 12.734375 -58.796875 14.476562 -58.0625 15.9375 -56.59375 C 17.40625 -55.132812 18.140625 -53.390625 18.140625 -51.359375 C 18.140625 -49.328125 17.40625 -47.578125 15.9375 -46.109375 C 14.476562 -44.648438 12.734375 -43.921875 10.703125 -43.921875 C 8.671875 -43.921875 6.921875 -44.648438 5.453125 -46.109375 C 3.992188 -47.578125 3.265625 -49.328125 3.265625 -51.359375 C 3.265625 -53.390625 3.992188 -55.132812 5.453125 -56.59375 Z M 4.25 -36.34375 L 4.25 0 L 16.796875 0 L 16.796875 -36.34375 Z M 4.25 -36.34375 "/></g></g></g></svg>
